<svg width="40" height="40" viewBox="0 0 40 40" fill="none" xmlns="http://www.w3.org/2000/svg">
<path d="M15.5 12C15.5 11.5858 15.1642 11.25 14.75 11.25C14.3358 11.25 14 11.5858 14 12V16.25C14 16.6642 14.3358 17 14.75 17H19C19.4142 17 19.75 16.6642 19.75 16.25C19.75 15.8358 19.4142 15.5 19 15.5H16.3096C17.0632 14.7145 18.0058 14.1271 19.0537 13.7982C20.3921 13.3782 21.8304 13.4024 23.1539 13.8672C24.4773 14.332 25.6149 15.2125 26.3967 16.3771C27.1786 17.5418 27.5627 18.9281 27.4917 20.329C27.4207 21.7299 26.8984 23.0703 26.0028 24.1499C25.1073 25.2295 23.8865 25.9905 22.5228 26.3191C21.1592 26.6477 19.7258 26.5264 18.4367 25.9733C17.1477 25.4201 16.0722 24.4648 15.3708 23.25C15.1637 22.8913 14.705 22.7684 14.3463 22.9755C13.9876 23.1826 13.8647 23.6413 14.0718 24C14.935 25.4951 16.2587 26.6709 17.8452 27.3517C19.4317 28.0325 21.1959 28.1818 22.8743 27.7773C24.5526 27.3729 26.0551 26.4363 27.1574 25.1075C28.2596 23.7788 28.9024 22.1291 28.9897 20.4049C29.0771 18.6807 28.6044 16.9745 27.6421 15.5411C26.6799 14.1077 25.2798 13.024 23.6509 12.452C22.022 11.8799 20.2518 11.8501 18.6046 12.367C17.4384 12.733 16.3782 13.3591 15.5 14.1905V12Z" fill="white"/>
<path d="M19.2884 17.1818V23H18.5838V17.9205H18.5497L17.1293 18.8636V18.1477L18.5838 17.1818H19.2884ZM22.8594 23.0795C22.4313 23.0795 22.0668 22.9631 21.7656 22.7301C21.4645 22.4953 21.2344 22.1553 21.0753 21.7102C20.9162 21.2633 20.8366 20.7235 20.8366 20.0909C20.8366 19.4621 20.9162 18.9252 21.0753 18.4801C21.2363 18.0331 21.4673 17.6922 21.7685 17.4574C22.0715 17.2206 22.4351 17.1023 22.8594 17.1023C23.2836 17.1023 23.6463 17.2206 23.9474 17.4574C24.2505 17.6922 24.4815 18.0331 24.6406 18.4801C24.8016 18.9252 24.8821 19.4621 24.8821 20.0909C24.8821 20.7235 24.8026 21.2633 24.6435 21.7102C24.4844 22.1553 24.2543 22.4953 23.9531 22.7301C23.652 22.9631 23.2874 23.0795 22.8594 23.0795ZM22.8594 22.4545C23.2836 22.4545 23.6132 22.25 23.848 21.8409C24.0829 21.4318 24.2003 20.8485 24.2003 20.0909C24.2003 19.5871 24.1463 19.1581 24.0384 18.804C23.9323 18.4498 23.7789 18.1799 23.5781 17.9943C23.3793 17.8087 23.1397 17.7159 22.8594 17.7159C22.4389 17.7159 22.1103 17.9233 21.8736 18.3381C21.6368 18.7509 21.5185 19.3352 21.5185 20.0909C21.5185 20.5947 21.5715 21.0227 21.6776 21.375C21.7836 21.7273 21.9361 21.9953 22.1349 22.179C22.3357 22.3627 22.5772 22.4545 22.8594 22.4545Z" fill="white"/>
</svg>
