<svg width="40" height="40" viewBox="0 0 40 40" fill="none" xmlns="http://www.w3.org/2000/svg">
<path d="M24.5 12C24.5 11.5858 24.8358 11.25 25.25 11.25C25.6642 11.25 26 11.5858 26 12V16.25C26 16.6642 25.6642 17 25.25 17H21C20.5858 17 20.25 16.6642 20.25 16.25C20.25 15.8358 20.5858 15.5 21 15.5H23.6904C22.9368 14.7145 21.9942 14.1271 20.9463 13.7982C19.6079 13.3782 18.1696 13.4024 16.8461 13.8672C15.5227 14.332 14.3851 15.2125 13.6033 16.3771C12.8214 17.5418 12.4373 18.9281 12.5083 20.329C12.5793 21.7299 13.1016 23.0703 13.9972 24.1499C14.8927 25.2295 16.1135 25.9905 17.4772 26.3191C18.8408 26.6477 20.2742 26.5264 21.5633 25.9733C22.8523 25.4201 23.9278 24.4648 24.6292 23.25C24.8363 22.8913 25.295 22.7684 25.6537 22.9755C26.0124 23.1826 26.1353 23.6413 25.9282 24C25.065 25.4951 23.7413 26.6709 22.1548 27.3517C20.5683 28.0325 18.8041 28.1818 17.1257 27.7773C15.4474 27.3729 13.9449 26.4363 12.8426 25.1075C11.7404 23.7788 11.0976 22.1291 11.0103 20.4049C10.9229 18.6807 11.3956 16.9745 12.3579 15.5411C13.3201 14.1077 14.7202 13.024 16.3491 12.452C17.978 11.8799 19.7482 11.8501 21.3954 12.367C22.5616 12.733 23.6218 13.3591 24.5 14.1905V12Z" fill="white"/>
<path d="M17.2884 17.1818V23H16.5838V17.9205H16.5497L15.1293 18.8636V18.1477L16.5838 17.1818H17.2884ZM20.8594 23.0795C20.4313 23.0795 20.0668 22.9631 19.7656 22.7301C19.4645 22.4953 19.2344 22.1553 19.0753 21.7102C18.9162 21.2633 18.8366 20.7235 18.8366 20.0909C18.8366 19.4621 18.9162 18.9252 19.0753 18.4801C19.2363 18.0331 19.4673 17.6922 19.7685 17.4574C20.0715 17.2206 20.4351 17.1023 20.8594 17.1023C21.2836 17.1023 21.6463 17.2206 21.9474 17.4574C22.2505 17.6922 22.4815 18.0331 22.6406 18.4801C22.8016 18.9252 22.8821 19.4621 22.8821 20.0909C22.8821 20.7235 22.8026 21.2633 22.6435 21.7102C22.4844 22.1553 22.2543 22.4953 21.9531 22.7301C21.652 22.9631 21.2874 23.0795 20.8594 23.0795ZM20.8594 22.4545C21.2836 22.4545 21.6132 22.25 21.848 21.8409C22.0829 21.4318 22.2003 20.8485 22.2003 20.0909C22.2003 19.5871 22.1463 19.1581 22.0384 18.804C21.9323 18.4498 21.7789 18.1799 21.5781 17.9943C21.3793 17.8087 21.1397 17.7159 20.8594 17.7159C20.4389 17.7159 20.1103 17.9233 19.8736 18.3381C19.6368 18.7509 19.5185 19.3352 19.5185 20.0909C19.5185 20.5947 19.5715 21.0227 19.6776 21.375C19.7836 21.7273 19.9361 21.9953 20.1349 22.179C20.3357 22.3627 20.5772 22.4545 20.8594 22.4545Z" fill="white"/>
</svg>