<svg width="24" height="24" viewBox="0 0 24 24" fill="none" xmlns="http://www.w3.org/2000/svg">
<path d="M6.5 4C6.5 3.58579 6.16422 3.25 5.75 3.25C5.33579 3.25 5 3.58579 5 4V8.25C5 8.66421 5.33579 9 5.75 9H10C10.4142 9 10.75 8.66421 10.75 8.25C10.75 7.83579 10.4142 7.5 10 7.5H7.30957C8.06322 6.71446 9.00582 6.12708 10.0537 5.79822C11.3921 5.37821 12.8304 5.40242 14.1539 5.86723C15.4773 6.33204 16.6149 7.21251 17.3967 8.37714C18.1786 9.54176 18.5627 10.9281 18.4917 12.329C18.4207 13.7299 17.8984 15.0703 17.0028 16.1499C16.1073 17.2295 14.8865 17.9905 13.5228 18.3191C12.1592 18.6477 10.7258 18.5264 9.43674 17.9733C8.1477 17.4201 7.07219 16.4648 6.37083 15.25C6.16372 14.8913 5.70503 14.7684 5.34631 14.9755C4.98759 15.1826 4.86469 15.6413 5.07179 16C5.935 17.4951 7.25871 18.6709 8.84522 19.3517C10.4317 20.0325 12.1959 20.1818 13.8743 19.7773C15.5526 19.3729 17.0551 18.4363 18.1574 17.1075C19.2596 15.7788 19.9024 14.1291 19.9897 12.4049C20.0771 10.6807 19.6044 8.97448 18.6421 7.54109C17.6799 6.1077 16.2798 5.02405 14.6509 4.45198C13.022 3.8799 11.2518 3.85011 9.60459 4.36704C8.43839 4.73303 7.37816 5.35915 6.5 6.19051V4Z" fill="white"/>
<path d="M10.2884 9.18182V15H9.58381V9.92045H9.54972L8.12926 10.8636V10.1477L9.58381 9.18182H10.2884ZM13.8594 15.0795C13.4313 15.0795 13.0668 14.9631 12.7656 14.7301C12.4645 14.4953 12.2344 14.1553 12.0753 13.7102C11.9162 13.2633 11.8366 12.7235 11.8366 12.0909C11.8366 11.4621 11.9162 10.9252 12.0753 10.4801C12.2363 10.0331 12.4673 9.69223 12.7685 9.45739C13.0715 9.22064 13.4351 9.10227 13.8594 9.10227C14.2836 9.10227 14.6463 9.22064 14.9474 9.45739C15.2505 9.69223 15.4815 10.0331 15.6406 10.4801C15.8016 10.9252 15.8821 11.4621 15.8821 12.0909C15.8821 12.7235 15.8026 13.2633 15.6435 13.7102C15.4844 14.1553 15.2543 14.4953 14.9531 14.7301C14.652 14.9631 14.2874 15.0795 13.8594 15.0795ZM13.8594 14.4545C14.2836 14.4545 14.6132 14.25 14.848 13.8409C15.0829 13.4318 15.2003 12.8485 15.2003 12.0909C15.2003 11.5871 15.1463 11.1581 15.0384 10.804C14.9323 10.4498 14.7789 10.1799 14.5781 9.99432C14.3793 9.80871 14.1397 9.71591 13.8594 9.71591C13.4389 9.71591 13.1103 9.9233 12.8736 10.3381C12.6368 10.7509 12.5185 11.3352 12.5185 12.0909C12.5185 12.5947 12.5715 13.0227 12.6776 13.375C12.7836 13.7273 12.9361 13.9953 13.1349 14.179C13.3357 14.3627 13.5772 14.4545 13.8594 14.4545Z" fill="white"/>
</svg>
