<svg width="24" height="24" viewBox="0 0 24 24" fill="none" xmlns="http://www.w3.org/2000/svg">
<path d="M17.5 4C17.5 3.58579 17.8358 3.25 18.25 3.25C18.6642 3.25 19 3.58579 19 4V8.25C19 8.66421 18.6642 9 18.25 9H14C13.5858 9 13.25 8.66421 13.25 8.25C13.25 7.83579 13.5858 7.5 14 7.5H16.6904C15.9368 6.71446 14.9942 6.12708 13.9463 5.79822C12.6079 5.37821 11.1696 5.40242 9.84614 5.86723C8.52267 6.33204 7.38508 7.21251 6.60326 8.37714C5.82144 9.54176 5.43734 10.9281 5.50833 12.329C5.57933 13.7299 6.1016 15.0703 6.99715 16.1499C7.8927 17.2295 9.11348 17.9905 10.4772 18.3191C11.8408 18.6477 13.2742 18.5264 14.5633 17.9733C15.8523 17.4201 16.9278 16.4648 17.6292 15.25C17.8363 14.8913 18.295 14.7684 18.6537 14.9755C19.0124 15.1826 19.1353 15.6413 18.9282 16C18.065 17.4951 16.7413 18.6709 15.1548 19.3517C13.5683 20.0325 11.8041 20.1818 10.1257 19.7773C8.44736 19.3729 6.94487 18.4363 5.84265 17.1075C4.74043 15.7788 4.09763 14.1291 4.01026 12.4049C3.92288 10.6807 4.39561 8.97448 5.35786 7.54109C6.3201 6.1077 7.72021 5.02405 9.34909 4.45198C10.978 3.8799 12.7482 3.85011 14.3954 4.36704C15.5616 4.73303 16.6218 5.35915 17.5 6.19051V4Z" fill="white"/>
<path d="M10.2884 9.18182V15H9.58381V9.92045H9.54972L8.12926 10.8636V10.1477L9.58381 9.18182H10.2884ZM13.8594 15.0795C13.4313 15.0795 13.0668 14.9631 12.7656 14.7301C12.4645 14.4953 12.2344 14.1553 12.0753 13.7102C11.9162 13.2633 11.8366 12.7235 11.8366 12.0909C11.8366 11.4621 11.9162 10.9252 12.0753 10.4801C12.2363 10.0331 12.4673 9.69223 12.7685 9.45739C13.0715 9.22064 13.4351 9.10227 13.8594 9.10227C14.2836 9.10227 14.6463 9.22064 14.9474 9.45739C15.2505 9.69223 15.4815 10.0331 15.6406 10.4801C15.8016 10.9252 15.8821 11.4621 15.8821 12.0909C15.8821 12.7235 15.8026 13.2633 15.6435 13.7102C15.4844 14.1553 15.2543 14.4953 14.9531 14.7301C14.652 14.9631 14.2874 15.0795 13.8594 15.0795ZM13.8594 14.4545C14.2836 14.4545 14.6132 14.25 14.848 13.8409C15.0829 13.4318 15.2003 12.8485 15.2003 12.0909C15.2003 11.5871 15.1463 11.1581 15.0384 10.804C14.9323 10.4498 14.7789 10.1799 14.5781 9.99432C14.3793 9.80871 14.1397 9.71591 13.8594 9.71591C13.4389 9.71591 13.1103 9.9233 12.8736 10.3381C12.6368 10.7509 12.5185 11.3352 12.5185 12.0909C12.5185 12.5947 12.5715 13.0227 12.6776 13.375C12.7836 13.7273 12.9361 13.9953 13.1349 14.179C13.3357 14.3627 13.5772 14.4545 13.8594 14.4545Z" fill="white"/>
</svg>
